<?xml version="1.0" encoding="UTF-8"?>
<svg version="1.1" xmlns="http://www.w3.org/2000/svg" width="200" height="200">
<path d="M0 0 C0.70310303 -0.00525696 1.40620605 -0.01051392 2.13061523 -0.01593018 C4.44480899 -0.02908698 6.75830952 -0.02040696 9.07250977 -0.01025391 C10.68766918 -0.01227612 12.30282771 -0.01518879 13.91798401 -0.01895142 C17.29974071 -0.0233691 20.68125931 -0.01696261 24.06298828 -0.00292969 C28.38839683 0.01414831 32.71324632 0.00432654 37.0386343 -0.01364708 C40.37331824 -0.02451176 43.70787067 -0.02102607 47.04255867 -0.0132637 C48.636893 -0.01126839 50.23123943 -0.01369739 51.82555962 -0.02070236 C54.05850498 -0.02835979 56.29055821 -0.01665328 58.5234375 0 C60.4260862 0.00358017 60.4260862 0.00358017 62.36717224 0.00723267 C67.67451017 0.59170587 71.65160386 2.60784489 75.07641602 6.70068359 C75.55594727 7.25369141 76.03547852 7.80669922 76.52954102 8.37646484 C79.50470227 12.99154932 80.07917551 17.60623643 80.10107422 23.00097656 C80.11060623 24.29607147 80.12013824 25.59116638 80.12995911 26.92550659 C80.12969762 28.32712837 80.12876032 29.72875016 80.12719727 31.13037109 C80.13108938 32.58236818 80.1354251 34.03436414 80.1401825 35.48635864 C80.14762609 38.52414649 80.14736726 41.56181808 80.14208984 44.59960938 C80.13630135 48.47526266 80.15321985 52.35043708 80.17643452 56.22601128 C80.19123189 59.22363017 80.19203538 62.22113538 80.18892479 65.21878433 C80.18943511 66.64680046 80.19461812 68.07482344 80.20473671 69.5028038 C80.26133616 78.60772338 80.15423814 86.14434145 74.57641602 93.70068359 C69.54001779 98.62261822 64.62063269 99.7613241 57.73291016 99.79223633 C57.06198837 99.79909958 56.39106659 99.80596283 55.69981384 99.81303406 C53.50351203 99.83118921 51.30793229 99.82748112 49.11157227 99.82177734 C47.57132234 99.82634462 46.03107444 99.83165181 44.49082947 99.83766174 C41.2706573 99.84657068 38.05073342 99.84419524 34.83056641 99.83422852 C30.72051408 99.82274196 26.61132135 99.842956 22.50138187 99.87214565 C19.32273488 99.89056354 16.14429179 99.89020415 12.96560478 99.88450813 C11.45106234 99.8843556 9.93650547 99.89034353 8.42201424 99.90279961 C-8.23894126 100.02054084 -8.23894126 100.02054084 -14.67759705 93.9763031 C-19.27350032 88.86203141 -20.42222641 84.33713526 -20.44824219 77.59765625 C-20.45335312 76.9351738 -20.45846405 76.27269135 -20.46372986 75.59013367 C-20.47757406 73.41074464 -20.47667286 71.23167374 -20.47436523 69.05224609 C-20.4782554 67.52916345 -20.48259074 66.00608188 -20.48735046 64.48300171 C-20.49480183 61.29380779 -20.49452957 58.10472459 -20.48925781 54.91552734 C-20.48346874 50.84133833 -20.5003855 46.76760475 -20.52360249 42.69349098 C-20.5383811 39.54836403 -20.53920587 36.40334568 -20.53609276 33.25819016 C-20.53660404 31.75677973 -20.54180526 30.25536291 -20.55190468 28.75398636 C-20.56433073 26.64819573 -20.55744144 24.54327811 -20.54589844 22.4375 C-20.54652786 21.24234772 -20.54715729 20.04719543 -20.54780579 18.81582642 C-19.83044606 12.24525006 -17.23237991 7.72429438 -12.17358398 3.38818359 C-8.04230602 0.37441534 -5.07573811 0.00955689 0 0 Z M-12.02432251 12.7175293 C-13.44422254 16.01709359 -13.55451516 18.5275719 -13.56176758 22.11865234 C-13.56702454 22.77459381 -13.57228149 23.43053528 -13.57769775 24.10635376 C-13.59084388 26.26304312 -13.58217953 28.41898743 -13.57202148 30.57568359 C-13.57404379 32.0811375 -13.57695653 33.58659045 -13.58071899 35.09204102 C-13.58513502 38.24260818 -13.57873477 41.39291966 -13.56469727 44.54345703 C-13.54760553 48.5752752 -13.55745062 52.6064942 -13.57541466 56.63829041 C-13.58627216 59.74561043 -13.5827972 62.85278917 -13.57503128 65.96011353 C-13.5730347 67.44642203 -13.57546949 68.9327435 -13.58246994 70.41903687 C-13.59011718 72.49894022 -13.57843612 74.57788277 -13.56176758 76.65771484 C-13.55818741 78.43045776 -13.55818741 78.43045776 -13.55453491 80.23901367 C-12.98638022 84.93572271 -10.79167243 88.37310989 -7.17358398 91.38818359 C-3.81061435 92.50917347 -1.23123585 92.53569086 2.31396484 92.56518555 C2.96800797 92.57175674 3.62205109 92.57832794 4.2959137 92.58509827 C6.45842612 92.60479374 8.62086922 92.61648541 10.78344727 92.62646484 C11.52342138 92.63054037 12.2633955 92.6346159 13.02579308 92.63881493 C16.9424855 92.6596597 20.85914305 92.67396826 24.77587891 92.68334961 C28.81442374 92.69441078 32.8524171 92.72881119 36.8907671 92.76852131 C40.00238548 92.79470647 43.1138728 92.80304309 46.22559166 92.80663109 C47.7139019 92.81149219 49.20220647 92.82309272 50.69040871 92.84166908 C52.77760775 92.86610299 54.86338436 92.86508895 56.95068359 92.8581543 C58.72914421 92.86695366 58.72914421 92.86695366 60.54353333 92.87593079 C65.5485434 92.13232224 68.55555548 89.98923199 71.67616272 86.05784607 C73.09442516 82.76615194 73.21404533 80.25681391 73.23046875 76.67358398 C73.24076363 75.69208122 73.24076363 75.69208122 73.25126648 74.69075012 C73.2694903 72.53888937 73.26570361 70.38776082 73.26000977 68.23583984 C73.26457385 66.7327806 73.2698801 65.22972345 73.27589417 63.72666931 C73.28481664 60.5803071 73.2824123 57.43419883 73.27246094 54.2878418 C73.26097427 50.26496608 73.28118148 46.24296855 73.31037807 42.22020817 C73.32876567 39.11712621 73.32844256 36.0142537 73.32274055 32.91113091 C73.32258764 31.4284282 73.32860733 29.94571103 73.34103203 28.46306038 C73.35598941 26.38554681 73.34523325 24.30964255 73.328125 22.23217773 C73.32795883 21.05256973 73.32779266 19.87296173 73.32762146 18.65760803 C72.56269044 13.66786942 70.41948334 10.65270901 66.49607849 7.53843689 C63.20438437 6.12017445 60.69504633 6.00055428 57.11181641 5.98413086 C56.45748123 5.97726761 55.80314606 5.97040436 55.12898254 5.96333313 C52.97712179 5.94510931 50.82599324 5.948896 48.67407227 5.95458984 C47.17101303 5.95002576 45.66795587 5.94471951 44.16490173 5.93870544 C41.01853952 5.92978297 37.87243125 5.9321873 34.72607422 5.94213867 C30.7031985 5.95362534 26.68120097 5.93341813 22.65844059 5.90422153 C19.55535863 5.88583394 16.45248612 5.88615705 13.34936333 5.89185905 C11.86666062 5.89201197 10.38394345 5.88599227 8.9012928 5.87356758 C6.82377923 5.8586102 4.74787498 5.86936636 2.67041016 5.88647461 C0.90099815 5.88672386 0.90099815 5.88672386 -0.90415955 5.88697815 C-5.89390052 6.65190953 -8.90835013 8.79575603 -12.02432251 12.7175293 Z " fill="#000000" transform="translate(70.173583984375,51.61181640625)"/>
<path d="M0 0 C1.98 0 3.96 0 6 0 C6 4.95 6 9.9 6 15 C10.95 15 15.9 15 21 15 C21 16.98 21 18.96 21 21 C16.05 21 11.1 21 6 21 C6 25.95 6 30.9 6 36 C4.02 36 2.04 36 0 36 C0 31.05 0 26.1 0 21 C-4.95 21 -9.9 21 -15 21 C-15 19.02 -15 17.04 -15 15 C-10.05 15 -5.1 15 0 15 C0 10.05 0 5.1 0 0 Z " fill="#000000" transform="translate(97,83)"/>
</svg>
