<?xml version="1.0" encoding="UTF-8"?>
<svg version="1.1" xmlns="http://www.w3.org/2000/svg" width="512" height="512">
<path d="M0 0 C1.48540031 -0.0049926 1.48540031 -0.0049926 3.00080872 -0.01008606 C5.077276 -0.01511273 7.15375125 -0.01749572 9.23022461 -0.01733398 C12.39645599 -0.01953259 15.56234511 -0.03776665 18.72851562 -0.05664062 C20.75650924 -0.05957309 22.78450449 -0.06155887 24.8125 -0.0625 C26.22054146 -0.07327827 26.22054146 -0.07327827 27.6570282 -0.08427429 C39.58773188 -0.04294524 39.58773188 -0.04294524 44.38671875 4.0078125 C44.94617188 4.70003906 45.505625 5.39226562 46.08203125 6.10546875 C46.65695313 6.79511719 47.231875 7.48476562 47.82421875 8.1953125 C50.63261918 12.20164645 50.69218635 16.44219873 50.20703125 21.16796875 C48.20406457 26.843041 44.59352946 30.47471964 39.20703125 33.16796875 C37.61031544 33.27146245 36.00944664 33.31387922 34.40942383 33.32568359 C33.41111038 33.33594574 32.41279694 33.34620789 31.38423157 33.35678101 C29.75931038 33.367733 29.75931038 33.367733 28.1015625 33.37890625 C25.81574816 33.40698377 23.52994096 33.43564829 21.24414062 33.46484375 C17.63436143 33.50605072 14.02471442 33.54293084 10.41479492 33.56933594 C6.93510184 33.59700745 3.45601917 33.64289121 -0.0234375 33.69140625 C-1.09659714 33.69465912 -2.16975677 33.69791199 -3.2754364 33.70126343 C-9.84624941 33.8086078 -15.35217798 34.20549418 -20.53515625 38.66796875 C-24.62208887 44.07963126 -24.94161721 48.04692722 -24.94013977 54.63713074 C-24.94381646 55.51201324 -24.94749315 56.38689575 -24.95128125 57.28828984 C-24.96232912 60.23150575 -24.96616381 63.17468637 -24.9699707 66.11791992 C-24.97623453 68.22358309 -24.98288126 70.32924516 -24.98988342 72.43490601 C-25.0073008 78.16441778 -25.01784726 83.89392121 -25.02608895 89.6234529 C-25.03123769 93.202378 -25.03731348 96.7813005 -25.04360008 100.36022377 C-25.06265446 111.55579738 -25.07688492 122.75136438 -25.08521205 133.94695109 C-25.09498552 146.8740442 -25.121307 159.80096613 -25.16171294 172.72799891 C-25.19186512 182.71706291 -25.20668009 192.70607781 -25.20999306 202.69518644 C-25.21234461 208.66243505 -25.22131879 214.62950084 -25.24645424 220.59670067 C-25.269724 226.21178202 -25.27397244 231.82656003 -25.26369286 237.44167709 C-25.26319712 239.50079036 -25.26952865 241.55991851 -25.2832489 243.61898613 C-25.30095629 246.43431656 -25.29386717 249.24855702 -25.28071594 252.06388855 C-25.29168519 252.87509334 -25.30265443 253.68629814 -25.31395608 254.52208489 C-25.25088851 260.13001922 -23.97241328 264.49645429 -20.79296875 269.16796875 C-16.64985196 272.37888426 -12.669451 273.29065671 -7.50969219 273.29939651 C-6.22929846 273.30515823 -6.22929846 273.30515823 -4.92303818 273.31103635 C-3.52359041 273.30973662 -3.52359041 273.30973662 -2.09587097 273.30841064 C-1.10100546 273.31138177 -0.10613994 273.31435289 0.91887301 273.31741405 C4.26208591 273.32610557 7.60526302 273.32760968 10.94848633 273.32910156 C13.34162981 273.33372938 15.73477255 273.33875399 18.12791443 273.34414673 C24.63620317 273.35727541 31.14448505 273.36375319 37.65278459 273.36815739 C41.71731779 273.3709212 45.78184863 273.37515879 49.84638023 273.37966156 C61.10219199 273.3918526 72.35800186 273.4021525 83.61382008 273.40553665 C84.3340158 273.40575622 85.05421153 273.40597578 85.79623137 273.406202 C86.51813806 273.40642028 87.24004476 273.40663856 87.98382741 273.40686345 C89.44665643 273.40730692 90.90948544 273.40775348 92.37231445 273.40820312 C93.09792628 273.40842455 93.8235381 273.40864598 94.57113817 273.40887412 C106.32879517 273.4128222 118.0863902 273.43027724 129.84402326 273.45356265 C141.91836867 273.4772821 153.99268298 273.48973876 166.06705207 273.49090457 C172.84519463 273.49182096 179.62325642 273.49756412 186.40137672 273.51572418 C192.776464 273.53217799 199.15139788 273.53437336 205.52649879 273.52558517 C207.86661184 273.52481339 210.20673304 273.52917609 212.54682541 273.53904343 C215.74106132 273.55172276 218.9347506 273.54590761 222.12898254 273.53546143 C223.51839207 273.54754603 223.51839207 273.54754603 224.93587047 273.55987477 C231.47901925 273.50981977 236.30141221 272.52387608 241.51953125 268.29296875 C245.41698098 263.38506909 245.49574819 258.50886229 245.46772766 252.44483948 C245.47155321 251.56683699 245.47537876 250.6888345 245.47932023 249.78422588 C245.48963815 246.84249917 245.48566036 243.90096809 245.48168945 240.95922852 C245.48603658 238.85002461 245.49121973 236.74082229 245.49717712 234.63162231 C245.51057791 228.90234164 245.51114461 223.17312689 245.50861382 217.44383359 C245.5075449 212.66237129 245.51242543 207.88092237 245.51721925 203.09946293 C245.52831805 191.82044885 245.52874965 180.54146807 245.52270508 169.26245117 C245.51666319 157.62276817 245.52898095 145.98320598 245.55027515 134.34354359 C245.5678814 124.35276568 245.57389407 114.36202626 245.5706374 104.3712334 C245.56882294 98.40300426 245.5714771 92.43486131 245.58535194 86.46664619 C245.59790983 80.85485304 245.59600542 75.24324848 245.58294106 69.63145828 C245.58057133 67.57151285 245.58332408 65.51155423 245.59156418 63.45162392 C245.60199967 60.64022329 245.59395659 57.82945925 245.58125305 55.01808167 C245.58862734 54.20241543 245.59600162 53.38674919 245.60359937 52.5463658 C245.55096572 47.01175608 244.55136177 42.79987048 240.7421875 38.5234375 C236.08258705 34.82789231 232.99867569 34.04920852 227.16650391 34.02612305 C226.16511383 34.01908859 225.16372375 34.01205414 224.13198853 34.00480652 C222.51784561 33.9985601 222.51784561 33.9985601 220.87109375 33.9921875 C218.58723033 33.96899293 216.30337613 33.94487575 214.01953125 33.91992188 C210.42278841 33.88478976 206.82638588 33.85544771 203.22949219 33.84204102 C199.75544219 33.82656163 196.28238201 33.78635607 192.80859375 33.7421875 C191.20052353 33.74505013 191.20052353 33.74505013 189.55996704 33.74797058 C183.45859871 33.64812158 179.84937191 33.24395322 175.20703125 29.16796875 C171.20439506 24.73261514 169.8293987 21.41013264 169.9296875 15.359375 C170.61106605 9.97552473 172.99622317 6.19452342 177.08203125 2.73046875 C183.1595722 -0.30830173 189.52942378 0.00810959 196.1796875 0 C197.61893837 -0.0049926 197.61893837 -0.0049926 199.08726501 -0.01008606 C201.11538211 -0.01513678 203.14350748 -0.01749496 205.17163086 -0.01733398 C208.23500755 -0.01950676 211.2980157 -0.03764449 214.36132812 -0.05664062 C233.66212571 -0.11368916 251.66375293 0.75071538 266.20703125 15.16796875 C275.78197958 26.56234104 279.53606071 38.87718175 279.46772766 53.59712219 C279.47155321 54.49079205 279.47537876 55.38446191 279.47932023 56.30521268 C279.4895578 59.27034983 279.48567578 62.23528997 279.48168945 65.20043945 C279.48604107 67.33843157 279.49122572 69.47642213 279.49717712 71.6144104 C279.51053055 77.40171429 279.51114982 83.18895272 279.50861382 88.97626901 C279.50754154 93.81697015 279.51243412 98.65765819 279.51721925 103.49835652 C279.52830199 114.92396321 279.5287589 126.34953702 279.52270508 137.77514648 C279.51666692 149.5403303 279.52897518 161.30539448 279.55027515 173.07055789 C279.56792085 183.19148115 279.57388778 193.31236643 279.5706374 203.43330449 C279.568829 209.46931061 279.57141641 215.5052314 279.58535194 221.54122353 C279.59797384 227.22040736 279.59594496 232.89940543 279.58294106 238.57858658 C279.58058514 240.65494666 279.58327435 242.73132 279.59156418 244.80766487 C279.65894326 263.00568783 278.32356928 279.29407741 265.2421875 293.32421875 C252.98092282 304.43231267 238.97646882 307.32843132 222.9866333 307.30168152 C221.48224957 307.30507985 221.48224957 307.30507985 219.94747424 307.30854684 C216.60071317 307.31485602 213.25399291 307.31405946 209.90722656 307.31323242 C207.50190173 307.31622584 205.09657738 307.31962879 202.69125366 307.32341003 C196.84357263 307.33131972 190.99590109 307.33446389 185.1482158 307.33502241 C180.39164305 307.33549862 175.6350736 307.33755861 170.87850189 307.34072304 C157.37352137 307.34952382 143.86854877 307.35414334 130.36356536 307.35339256 C129.63644035 307.35335261 128.90931535 307.35331265 128.16015625 307.35327148 C127.43213675 307.3532306 126.70411726 307.35318972 125.95403656 307.3531476 C114.16122743 307.35274134 102.36845026 307.36230746 90.57565036 307.37640985 C78.4480438 307.39079743 66.32045279 307.39767872 54.19283748 307.39681607 C47.3917002 307.39648492 40.59059642 307.39919621 33.78946686 307.40999413 C27.39053237 307.41969661 20.99166849 307.41973949 14.59273148 307.41247749 C12.24988069 307.41143432 9.90702546 307.4137786 7.56418228 307.41983795 C-11.74439757 307.4665249 -30.17223611 307.44492426 -45.0546875 293.16796875 C-54.92196331 281.81505815 -58.94893499 269.01481304 -58.93341064 254.21983337 C-58.93638177 253.32958121 -58.93935289 252.43932905 -58.94241405 251.52209955 C-58.95107249 248.54458999 -58.95260689 245.56712076 -58.95410156 242.58959961 C-58.95873183 240.45219843 -58.96375677 238.31479808 -58.96914673 236.17739868 C-58.98225431 230.37334751 -58.98871271 224.5693079 -58.99315739 218.76524425 C-58.9960913 215.13584345 -59.00019676 211.5064458 -59.00466156 207.87704659 C-59.01833335 196.5122132 -59.02800107 185.14738702 -59.03186345 173.78254598 C-59.03634087 160.68124324 -59.05387551 147.58004499 -59.08286405 134.47877401 C-59.10451357 124.34095197 -59.11456951 114.20315926 -59.11590457 104.06531435 C-59.11695042 98.01582701 -59.12281134 91.96643794 -59.14072418 85.91697502 C-59.15726096 80.22143948 -59.15933316 74.52607551 -59.15058517 68.83052444 C-59.14981775 66.74771349 -59.15411837 64.66489309 -59.16404343 62.58210564 C-59.24313604 44.94035657 -58.20863384 28.47804112 -45.53125 14.78515625 C-32.27069119 2.44836671 -17.39917305 0.02076105 0 0 Z " fill="#000000" transform="translate(145.79296875,167.83203125)"/>
<path d="M0 0 C2.50907846 2.23496245 4.87484362 4.60123611 7.24291992 6.98413086 C7.94123428 7.67894058 8.63954865 8.37375031 9.35902405 9.08961487 C11.65454562 11.37636925 13.94271533 13.67031979 16.23046875 15.96484375 C17.82867196 17.56169903 19.4271719 19.15825737 21.0259552 20.75453186 C24.37041931 24.09605162 27.71124986 27.44115141 31.04956055 30.78881836 C35.3266949 35.07735596 39.61275739 39.3568402 43.90157604 43.63368893 C47.20201101 46.92689465 50.49766486 50.22485184 53.79189491 53.52426338 C55.37046862 55.10417015 56.95052634 56.68259562 58.53209496 58.25950432 C60.74136285 60.46368863 62.94411047 62.67419066 65.14526367 64.88647461 C65.79830475 65.53546722 66.45134583 66.18445984 67.12417603 66.8531189 C72.30247591 72.07998879 75.74480593 76.34417779 76 84 C74.97482391 90.24921167 72.66170433 94.00391763 67.71875 97.90625 C63.89002701 100.34271009 60.41826705 100.29455114 56 100 C48.54528102 97.83903264 43.99293816 92.50414818 38.69140625 87.08203125 C37.71580012 86.09895392 36.739299 85.11676403 35.76194763 84.13542175 C33.20652207 81.56480909 30.66334454 78.98241017 28.12261963 76.39727783 C25.52204805 73.75560336 22.90994936 71.12538054 20.29882812 68.49414062 C15.18793626 63.34050029 10.08994274 58.17434053 5 53 C4.99853344 54.0852169 4.99706688 55.17043381 4.99555588 56.28853607 C4.95895906 82.69563654 4.89950698 109.10261019 4.81609726 135.50960541 C4.77628989 148.27984325 4.74390597 161.05001931 4.72900391 173.8203125 C4.71599625 184.95104762 4.68905408 196.08164692 4.64538693 207.21230555 C4.62275239 213.10578511 4.60709053 218.99909701 4.60811615 224.8926239 C4.60886157 230.44124907 4.5909578 235.98950332 4.55883217 241.53803253 C4.55032255 243.57292743 4.54859043 245.60786389 4.55419731 247.64276886 C4.56084261 250.4254862 4.54290378 253.20702527 4.51898193 255.98962402 C4.52674235 256.79120233 4.53450277 257.59278064 4.54249835 258.4186492 C4.45769153 264.00750822 3.1408285 268.33536205 0 273 C-4.30550265 276.81624099 -8.35280269 278.08755345 -14 278 C-19.56726569 277.05639565 -22.4298102 275.36356531 -26 271 C-29.11581172 265.94020303 -29.43330015 261.98850832 -29.39872742 256.23013306 C-29.40537424 255.35929341 -29.41202107 254.48845376 -29.41886932 253.59122503 C-29.43748719 250.68000048 -29.43489483 247.76918736 -29.43237305 244.85791016 C-29.44139093 242.76837585 -29.45171822 240.67884685 -29.46325684 238.58932495 C-29.4908497 232.92042561 -29.50011451 227.25162658 -29.50611091 221.58266878 C-29.51548857 215.65690919 -29.54169149 209.73122471 -29.56611633 203.80551147 C-29.60980168 192.58594773 -29.63833619 181.36639855 -29.66143972 170.1467756 C-29.68848043 157.3729548 -29.73239267 144.59920948 -29.77772844 131.82544255 C-29.8706039 105.55033595 -29.9422714 79.27520567 -30 53 C-30.55266037 53.5593222 -31.10532074 54.11864441 -31.67472839 54.69491577 C-36.88985519 59.97020745 -42.11219768 65.23819953 -47.34275341 70.49818993 C-50.03144219 73.20252017 -52.71727494 75.90956362 -55.39672852 78.62304688 C-57.98369584 81.24266156 -60.57796888 83.85483332 -63.17742348 86.46205521 C-64.16679719 87.45696275 -65.15353103 88.45450283 -66.13753319 89.45472336 C-67.51846508 90.857499 -68.90979215 92.25001815 -70.30151367 93.64208984 C-71.08983078 94.43706879 -71.87814789 95.23204773 -72.69035339 96.05111694 C-76.8251241 99.54004228 -80.61008078 100.41882731 -86.015625 100.24609375 C-90.74443349 99.65964703 -93.80172307 97.4558079 -96.8125 93.9375 C-99.68260497 90.08335905 -100.23867509 88.1347478 -100.4375 83.375 C-100.49808594 82.37210937 -100.55867187 81.36921875 -100.62109375 80.3359375 C-99.21637709 72.79110712 -92.25269891 66.95971341 -86.97241211 61.71362305 C-86.29681747 61.03452377 -85.62122284 60.3554245 -84.92515564 59.65574646 C-82.71418584 57.43604932 -80.49607099 55.22365977 -78.27734375 53.01171875 C-76.72818786 51.4612141 -75.17932883 49.91041278 -73.63075256 48.35932922 C-70.39533923 45.12097722 -67.1563611 41.88624542 -63.91479492 38.65405273 C-59.76306694 34.51374712 -55.62042119 30.36448836 -51.48038387 26.21249676 C-48.28840614 23.01329092 -45.09167898 19.8188651 -41.89349556 16.62586403 C-40.36382869 15.09752954 -38.83564118 13.5677129 -37.30897331 12.03638268 C-35.17685137 9.89917686 -33.03841507 7.76849476 -30.89819336 5.6394043 C-30.27104431 5.00820679 -29.64389526 4.37700928 -28.9977417 3.72668457 C-20.08581124 -5.09965198 -10.62243548 -8.07441826 0 0 Z " fill="#000000" transform="translate(269,42)"/>
</svg>
