<svg xmlns="http://www.w3.org/2000/svg" width="512" height="512"><path d="M451 17c6.912 4.648 12.74 10.38 18.633 16.227l1.493 1.475c2.606 2.576 5.206 5.158 7.801 7.745 2.654 2.642 5.325 5.266 8.002 7.885 2.081 2.044 4.149 4.102 6.213 6.163.978.972 1.96 1.939 2.95 2.9 8.74 8.523 15.897 18.107 16.2 30.71.134 16.144-4.898 25.419-16.063 36.895-3.318 3.37-6.664 6.71-10.012 10.05l-4.563 4.577c-4.168 4.18-8.341 8.354-12.516 12.526-4.506 4.506-9.007 9.017-13.508 13.528-8.814 8.83-17.633 17.655-26.455 26.478a80201.336 80201.336 0 0 0-27.7 27.717l-1.556 1.557a134138.075 134138.075 0 0 1-53.232 53.25l-1.659 1.66-3.322 3.322a88204.403 88204.403 0 0 0-51.682 51.723 97723.312 97723.312 0 0 1-65.834 65.88c-8.18 8.18-16.355 16.367-24.527 24.556-8.213 8.23-16.433 16.452-24.661 24.667-4.456 4.45-8.909 8.902-13.353 13.363-4.069 4.085-8.148 8.161-12.234 12.23A1296.54 1296.54 0 0 0 145 478.51c-20.389 20.534-20.389 20.534-36.102 20.87-18.61-.048-28.418-8.596-41.226-21.372l-2.885-2.865c-2-1.988-3.996-3.98-5.99-5.976-2.537-2.537-5.088-5.06-7.642-7.58a1411.355 1411.355 0 0 1-5.935-5.91 873.397 873.397 0 0 0-4.176-4.128c-9.442-9.51-15.07-19.371-15.481-32.924.49-19.652 14.17-31.804 27.233-44.802a6664.16 6664.16 0 0 1 16.943-16.954c4.473-4.466 8.936-8.94 13.401-13.413 8.236-8.248 16.478-16.49 24.724-24.727 7.617-7.61 15.231-15.222 22.843-22.838l1.532-1.532 6.157-6.16c19.237-19.246 38.483-38.484 57.733-57.717 17.094-17.08 34.18-34.168 51.26-51.262a123585.055 123585.055 0 0 1 63.77-63.78l1.529-1.528c7.61-7.608 15.218-15.22 22.823-22.832 8.648-8.657 17.302-17.308 25.962-25.952a9286.04 9286.04 0 0 0 13.242-13.241c4.037-4.046 8.081-8.085 12.13-12.118 1.463-1.46 2.924-2.922 4.381-4.387C407.283 19.251 427.721 3.868 451 17Zm-23.794 44.671-2.388 2.391-2.733 2.728-3.02 3.032-3.164 3.163c-2.872 2.871-5.74 5.746-8.609 8.621-2.994 3.001-5.992 5.999-8.989 8.997a39641.88 39641.88 0 0 0-17.031 17.053c-6.46 6.47-12.922 12.94-19.385 19.407-13.3 13.31-26.594 26.622-39.887 39.937 4.525 5.361 4.525 5.361 9.343 10.457l1.758 1.758 1.829 1.812c.952.951.952.951 1.925 1.92 2.004 2 4.012 3.995 6.02 5.99l4.11 4.096c3.335 3.325 6.674 6.647 10.015 9.967 4.282-1.655 7.146-4.873 10.31-8.067l1.889-1.883c2.06-2.056 4.112-4.12 6.164-6.183l4.305-4.306c3.01-3.011 6.016-6.026 9.02-9.043 3.835-3.852 7.676-7.697 11.52-11.54 2.966-2.966 5.93-5.935 8.892-8.905l4.244-4.25c9.328-9.3 9.328-9.3 18.14-19.084 2.903-3.33 6.065-6.41 9.2-9.52l2.122-2.118c2.208-2.203 4.42-4.402 6.632-6.601l4.529-4.516C457.642 103.32 461.32 99.66 465 96a213.45 213.45 0 0 0-12.895-14.027l-1.917-1.92a3047.41 3047.41 0 0 0-3.976-3.971 2993.57 2993.57 0 0 1-6.108-6.115l-3.874-3.87-1.85-1.855c-3.313-4.297-3.313-4.297-7.174-2.57ZM423.5 284.625l2.281.414c4.847 2.1 7.155 7.422 9.504 11.906l1.837 3.486.956 1.827c1 1.898 2.019 3.785 3.043 5.67 2.952 5.452 5.859 10.869 8.29 16.58 6.834 15.19 19.798 20.843 34.09 27.78 4.739 2.318 9.375 4.798 13.999 7.337l2.133 1.108c4.557 2.455 7.44 4.956 10.367 9.267.629 2.598.629 2.598.563 5.063l.003 2.472c-1.01 4.393-3.713 6.899-7.397 9.343l-3.27 1.759-1.788.973a567.529 567.529 0 0 1-3.781 2.035 769.63 769.63 0 0 0-5.896 3.184c-4.82 2.622-9.654 5.218-14.492 7.808-1.74.932-3.479 1.869-5.215 2.81-1.477.8-2.958 1.59-4.446 2.37-6.143 3.332-9.147 7.606-12.347 13.69l-1.705 3.215-1.791 3.403c-1.25 2.34-2.501 4.678-3.754 7.016l-1.88 3.505A852.998 852.998 0 0 1 435 452.875l-1.272 2.336c-2.591 4.55-4.947 7.31-9.728 9.789-2.125.531-2.125.531-4 .5l-1.875.031c-4.353-1.088-7.466-3.581-9.993-7.222l-1.577-3.086-1.805-3.466a390.721 390.721 0 0 0-3.87-7.481 772.44 772.44 0 0 1-8.962-17.48c-5.765-11.297-10.62-17.386-22.198-22.52-5.405-2.536-10.6-5.493-15.82-8.384a627.849 627.849 0 0 0-5.785-3.135C332.707 384.414 332.707 384.414 330 379c-.582-8.875-.582-8.875 3-13 7.047-5.367 14.997-9.334 22.813-13.438 3.587-1.89 7.171-3.785 10.74-5.71a389.167 389.167 0 0 1 6.796-3.567C380.393 339.51 384.285 336.05 388 329l1.632-2.927a619.334 619.334 0 0 0 5.243-9.76c1.235-2.31 2.47-4.618 3.707-6.926l1.784-3.335c2.045-3.82 4.093-7.638 6.197-11.427l1.69-3.086c2.351-3.418 4.877-5.813 8.778-7.328 2.317-.248 4.184-.048 6.469.414ZM90 47.5l2.5-.031c4.43.941 6.925 3.665 9.378 7.362l1.759 3.27.973 1.788a567.529 567.529 0 0 1 2.035 3.781 769.63 769.63 0 0 0 3.184 5.896c2.622 4.82 5.218 9.654 7.808 14.492.932 1.74 1.869 3.479 2.81 5.215.8 1.477 1.59 2.958 2.37 4.446C127.215 101.828 134.13 104.836 142 109a627627388.944 627627388.944 0 0 0 9.748 5.247 1325.475 1325.475 0 0 1 15.002 8.19l2.648 1.428c4.954 2.78 8.041 5 10.602 10.135.846 3.684.434 7.028-1.117 10.5-2.357 3.129-5.045 4.66-8.446 6.438l-2.052 1.116A940.153 940.153 0 0 1 161 156a6109.238 6109.238 0 0 0-9.978 5.336c-2.262 1.21-4.527 2.416-6.796 3.615A569.517 569.517 0 0 0 135 170l-2.526 1.297c-6.725 3.818-9.575 9.224-12.936 16.04a323.167 323.167 0 0 1-2.852 5.616 1533.8 1533.8 0 0 0-3.864 7.518 393.548 393.548 0 0 1-7.885 14.466l-1.26 2.288c-2.84 4.956-6.037 9.698-11.802 11.404L90 228.563l-1.875.003c-4.637-1.236-7.537-3.712-10.223-7.613a179.958 179.958 0 0 1-1.965-3.703l-1.11-2.055c-1.29-2.391-2.557-4.793-3.827-7.195-1.654-3.09-3.313-6.176-4.976-9.26a1237.673 1237.673 0 0 1-3.33-6.225C55.695 179.05 55.695 179.05 44 170l-2.849-1.561a999.318 999.318 0 0 0-9.776-5.251 8883.209 8883.209 0 0 1-6.953-3.735l-3.354-1.803L18 156l-2.506-1.346a600.408 600.408 0 0 1-5.869-3.216l-3.086-1.692c-3.595-2.472-6.109-4.874-7.105-9.21l.003-2.474-.066-2.464c1.158-4.782 3.913-7.486 7.919-10.083 2.83-1.595 5.695-3.095 8.585-4.578 2.152-1.142 4.303-2.285 6.453-3.43 3.312-1.744 6.627-3.483 9.947-5.211 3.13-1.637 6.24-3.308 9.35-4.984l2.886-1.47C51.444 102.067 54.513 97.985 58 91c1.035-1.901 2.072-3.801 3.113-5.7 1.068-1.995 2.134-3.99 3.2-5.987 3.81-7.07 7.62-14.137 11.687-21.063l2-3.422c3.277-4.634 6.164-7.401 12-7.328ZM245 16c3.794 3.257 6.107 6.574 8.375 11l1.797 3.438c.917 1.782 1.83 3.567 2.744 5.351.895 1.741 1.802 3.476 2.709 5.211l1.602 3.125c3.177 5.151 6.94 8.26 12.265 11.031l3.137 1.66 3.246 1.684C298.979 67.958 298.979 67.958 301 72c.385 3.466.375 5.384-1.457 8.395-3.42 3.503-7.189 5.323-11.543 7.48l-2.584 1.353c-3.589 1.878-7.104 3.65-10.877 5.131-10.185 4.424-13.845 14.3-18.531 23.758-5.78 11.656-5.78 11.656-10.008 15.883-1.926.273-1.926.273-4.313.375l-2.363.148c-3.42-.77-4.295-2.722-6.324-5.523a148.672 148.672 0 0 1-3.277-6l-1.807-3.438c-.93-1.782-1.855-3.565-2.777-5.351A836.874 836.874 0 0 0 222.41 109l-1.62-3.125c-3.453-5.547-7.496-8.536-13.263-11.469l-3.724-1.933c-1.936-.99-3.874-1.977-5.813-2.962-1.888-.963-3.77-1.94-5.65-2.917l-3.395-1.729c-3.123-1.978-4.905-3.8-6.945-6.865-.563-3-.563-3 0-6 4.393-5.59 10.67-8.282 16.875-11.5A655.946 655.946 0 0 0 211 54l2.03-.988c6.853-3.885 9.783-12.36 13.157-19.137a874.114 874.114 0 0 1 3.16-6.226c.657-1.283 1.304-2.57 1.94-3.863C234.575 17.328 237.61 14.963 245 16Z"/></svg>